<svg xmlns="http://www.w3.org/2000/svg" viewBox="0 0 906.28 215.17"><defs><style>.cls-1{fill:#50bc83;}.cls-2{fill:#2e253f;}</style></defs><g id="Layer_2" data-name="Layer 2"><g id="Layer_1-2" data-name="Layer 1"><polygon class="cls-1" points="789.41 114.89 828.53 52.74 842.55 52.74 881.66 114.72 896.22 114.69 906.28 104.64 842.55 3.63 828.53 3.63 766.1 102.82 778.2 114.92 789.41 114.89"/><polygon class="cls-1" points="789.41 212.29 828.53 150.14 842.55 150.14 881.66 212.12 896.22 212.09 906.28 202.03 842.55 101.03 828.53 101.03 766.1 200.21 778.2 212.31 789.41 212.29"/><path class="cls-1" d="M749.21,54.25a94,94,0,0,0-1.46-15.79c-2-11.39-7-21.2-16.82-28-8.23-5.72-17.61-8-27.42-8.21C686,2,664.24,2.12,646.71,2.11a4.7,4.7,0,0,0-.93.2V212.63h33.55V133.86c1.19,0,2,0,2.86,0,8.15-.31,20.59-.11,28.67-1.05,11.69-1.36,21.79-6.26,28.94-16.07,5.84-8,8.54-17.2,9-26.91C749.31,78,749.31,66.11,749.21,54.25ZM715.46,86.43a25,25,0,0,1-.65,5.24c-1.56,7-5.14,10.7-12.31,11.29-6.16.51-16.62.11-23,.11V32.31c6.57,0,17.28-.45,23.69.12,6.74.59,10.41,4.69,11.71,11.65a33.87,33.87,0,0,1,.63,6Q715.59,68.27,715.46,86.43Z"/><path class="cls-1" d="M595,.63V5q0,76.28,0,152.56a63,63,0,0,1-.63,9.13c-1.18,7.75-4.26,13.8-10.46,15.66-6.68,2-17.53,2-22.83-5a14.77,14.77,0,0,1-2.77-5.76,79.24,79.24,0,0,1-1.9-14.45q-.2-75.95-.08-151.9V.71s-18-.19-33.63-.19v3q0,79.32.08,158.63a79.45,79.45,0,0,0,1.77,16.26c3.56,16.58,13,28.29,29.67,33.15,12.23,3.57,28.87,3.54,41.12,0,13.44-3.86,22.63-12.49,27.55-25.61a66.42,66.42,0,0,0,4-23.51q0-79.56,0-159.13V.63Z"/><path class="cls-2" d="M0,2.88H96.35v30.3h-62V96.65H85.06v30.76H34v84.72H0Z"/><path class="cls-2" d="M489.84,3.62V211.5H458.89V77.69l-2.08-.19q-10.57,67-21.19,134.25H404C396.25,167,388.54,122.54,380.83,78.1l-2.05.2V211.64H352.47V3.41h43.9c7.83,47.16,15.6,93.93,23.36,140.71l2.48-.09c7.15-46.57,14.3-93.15,21.55-140.41Z"/><path class="cls-2" d="M330.28,212.2H313.05c-15.57,0-16.05-.3-16.41-16.37-.29-13.24-.09-26.48-.15-39.73-.09-23.61-12-30-37.11-26.51v81.82H225.85V3.92c21.48,0,47.07-1.6,68.09.45,21.6,2.1,32.4,13.88,35.06,35.36,1.62,13,1.2,26.46.22,39.6-1,13.29-7.49,24.28-20,31.92,16.77,9.58,20.76,24.67,21,41.34C330.46,172,330.28,191.49,330.28,212.2ZM259.81,33.82V97.23c19.56,2.79,33,.19,34.37-11C295.91,72.37,295.37,58,294,44c-.35-3.73-6.7-8.47-11.19-9.81C277.19,32.52,266.4,33.82,259.81,33.82Z"/><path class="cls-2" d="M102.71,107.38c0-19.85-.42-39.71.12-59.54S111,11.07,131.15,4.5c21.09-6.89,45.35-7.65,61.33,10.64,7.2,8.25,12.41,21,12.81,31.87,1.5,40.34,1.16,80.77.41,121.14-.42,22.79-11.7,38.36-31,43.59-21.1,5.71-44.83,6-60-12.46-6.75-8.22-10.56-20.54-11.52-31.37C101.43,147.87,102.71,127.57,102.71,107.38Zm69.83,1.17c0-18.82.11-37.64,0-56.46-.11-14.27-5.1-20.36-16.51-20.77-12.08-.44-20,5.34-20.15,20.27q-.56,56.46,0,112.93c.13,13.58,8.81,20.33,19.63,20.12s16.88-7.23,17-20.66C172.66,145.5,172.54,127,172.54,108.55Z"/></g></g></svg>