<svg xmlns="http://www.w3.org/2000/svg" viewBox="0 0 746.73 252.2"><defs><style>.cls-1{fill:#1d1d1b;}.cls-2{fill:#7ac245;}.cls-3{fill:#fff;}</style></defs><g id="Layer_2" data-name="Layer 2"><g id="Layer_1-2" data-name="Layer 1"><path d="M556.51,109.4c0-10.3-.1-20.6,0-30.9.1-7.8,1.5-15.4,5.4-22.3a43.37,43.37,0,0,1,25.9-21c10.6-3.2,21.2-3,31.3,1.4,13.5,5.8,22.4,15.9,25.9,30.4a54.79,54.79,0,0,1,1.4,12.1c.2,20.2.3,40.5.4,60.7v1.7c0,3.4-.1,3.5-3.4,3.5h-28.2c-2.6,0-2.8-.2-2.8-2.9V123.6c0-2.7-.3-2.9-3-3h-15.9c-2.8,0-3,.3-3,3.1V142c0,2.7-.2,2.9-2.8,2.9h-28.3c-2.6,0-2.9-.3-2.9-2.9V109.4Zm45-19.3H610c1.7,0,2.5-.6,2.5-2.4-.1-3.6.1-7.3-.1-10.9-.2-6.1-4.7-10.1-11-10.1s-10.7,4.1-10.9,10.2c-.1,3.6,0,7.2-.1,10.8,0,1.7.7,2.5,2.4,2.4Z"/><path d="M436.41,110.9v30.9c0,2.9-.2,3.1-3,3.1h-27.8c-2.6,0-2.9-.3-2.9-2.9V123.7c0-2.9-.3-3.2-3.2-3.2h-16.3c-2.7,0-3.1.4-3.1,3.1v18.3c0,2.6-.3,2.9-2.8,2.9h-28.4c-2.6,0-2.9-.3-2.9-2.9,0-20.1-.1-40.3,0-60.4a61.22,61.22,0,0,1,3-19.9,44.74,44.74,0,0,1,31.3-27.4c10.2-2.3,20.2-1.7,29.9,2.8a45,45,0,0,1,21,19.9,37.34,37.34,0,0,1,4.7,17.6c.3,12.1.4,24.2.6,36.3Zm-45.1-20.8H400c2.1,0,2.7-.5,2.7-2.6-.1-3.9-.2-7.8-.6-11.6-.6-5.7-4.9-9.2-10.6-9.2-6,0-10.4,3.6-10.9,9.3-.4,4-.2,8-.3,12,0,1.5.9,2,2.3,2C385.31,90.1,388.31,90.1,391.31,90.1Z"/><path d="M449,90.5V39.6c0-3.4.1-3.5,3.6-3.5,10.4,0,20.9-.2,31.3,0,8.4.2,16.9.6,25.1,3a51.75,51.75,0,0,1,23.8,15.1,52.37,52.37,0,0,1,12.3,23.1,48,48,0,0,1,1.3,16.9,56,56,0,0,1-4,16.6,54.41,54.41,0,0,1-26.5,27.8,61.25,61.25,0,0,1-24.9,5.7c-1.3.1-1.8-.4-1.8-1.7V114.3c0-3.2,0-3.2,3.1-3.4,8.5-.6,15.1-4.3,18.6-12.2,5.1-11.4-1.2-26.2-15.2-28.2-3.5-.5-7-.7-10.5-1a2,2,0,0,0-2.3,1.4c0,.2-.1.4,0,.6a25.28,25.28,0,0,0-.1,2.8v68.5c0,1.5-.7,2.1-2.1,2.1H452c-2.6,0-2.8-.3-2.8-2.9C449,124.8,449,107.6,449,90.5Z"/><path d="M729.91,144.9h-14.5c-2.2,0-2.6-.3-2.6-2.6v-17c0-3.4-.2-6.9-.4-10.4a10.6,10.6,0,0,0-10.9-9.9A10.37,10.37,0,0,0,691,115.2v.1c-.2,8.4-.3,16.9-.4,25.4v2.2c0,1.5-.7,2.1-2.2,2.1h-29.1c-2.5,0-2.9-.3-2.8-2.8.2-8.6,0-17.2.8-25.7.9-10.5,5.9-19.2,13.8-26.2,1.8-1.6,1.9-1.7,0-3.4a39.68,39.68,0,0,1-11.9-18.2A54.93,54.93,0,0,1,657,58c-.5-6.5-.4-13.1-.6-19.6,0-1.7.8-2.3,2.4-2.3h29.3c1.7,0,2.5.7,2.4,2.5,0,4-.1,8,0,12,0,3.2.2,6.4.3,9.6.2,6.2,4.6,10.7,10.5,10.7a10.51,10.51,0,0,0,11-10.6c.2-6.9.3-13.8.4-20.7,0-3.3.2-3.5,3.4-3.5h27.4c3,0,3.3.2,3.2,3.1-.1,6.1.1,12.1-.5,18.1-1.1,11.5-5.3,21.7-14.1,29.5-1.9,1.7-1.8,2,.1,3.7a43,43,0,0,1,10.2,13.3,42,42,0,0,1,3.8,15.2c.5,7.7.4,15.4.5,23.1,0,2.5-.3,2.8-2.7,2.8Z"/><path d="M300.11,36h37.4c3,0,3.2.2,3.2,3.3V66.7c0,2.7-.3,3-3,3h-17.6c-2.9,0-3.1.3-3.1,3.2v69.8c0,1.5-.7,2.1-2.1,2.1h-30c-1.7,0-2.3-.8-2.3-2.4V72.3c.1-1.8-.8-2.6-2.6-2.6h-18.7a1.81,1.81,0,0,1-2.1-1.5V38.1c0-1.8,1.2-2,2.6-2l38.3-.1Z"/><path d="M197.81,129.4V116.3c0-2.1.1-2,2.1-1.7a39.4,39.4,0,0,0,7.7.7c6.7-.3,10.6-6.3,8.2-12.6a58.49,58.49,0,0,0-3.5-7.1c-4.7-8.2-7.6-16.9-7-26.4,1.1-18,13.1-33.4,31.9-35.5,5.4-.6,10.9-.7,16.1,1.4a2.6,2.6,0,0,1,2,2.7V63.9c0,1.5-.6,2-2,1.7a9.74,9.74,0,0,0-2.4-.2c-7.2-.2-11.9,5.7-10,12.7a26.93,26.93,0,0,0,3,6.7c3.4,5.7,6.4,11.6,7.5,18.2,1.3,7.5.8,14.8-2.4,21.7a37.55,37.55,0,0,1-25.1,21.5,41.57,41.57,0,0,1-24.2-.7,2.5,2.5,0,0,1-1.8-2.8C197.81,138.1,197.81,133.8,197.81,129.4Z"/><path d="M386,13.2c0,6.9-4.4,11.3-11.3,11.3a11,11,0,0,1-11.2-10.8v-.3a11.59,11.59,0,0,1,11.6-11.5C380.31,1.8,386.71,7.1,386,13.2Z"/><path d="M407.31,24.5c-5.6.7-11.5-5-11.3-11.4a11.59,11.59,0,0,1,11.6-11.2c5.5-.1,11.2,5.9,11.1,11.4C418.71,18.6,414.21,25.1,407.31,24.5Z"/><polygon points="203.12 233.6 212.62 233.6 212.62 208.4 238.41 208.4 238.41 200.2 212.62 200.2 212.62 183.1 245.51 183.1 245.51 174.9 203.12 174.9 203.12 233.6"/><path d="M284.71,191a25.22,25.22,0,0,0-23,0,20,20,0,0,0-7.8,8,28.4,28.4,0,0,0,0,24.8,20,20,0,0,0,7.8,8,25.22,25.22,0,0,0,23,0,19.4,19.4,0,0,0,7.8-8,29.09,29.09,0,0,0,0-24.8A20,20,0,0,0,284.71,191Zm-.5,28.9a11.19,11.19,0,0,1-4.3,5.3,11.6,11.6,0,0,1-6.8,1.8,11.18,11.18,0,0,1-11.1-7.1,24.83,24.83,0,0,1,0-17,11.81,11.81,0,0,1,4.3-5.3,11.6,11.6,0,0,1,6.8-1.8,12.62,12.62,0,0,1,6.8,1.8,12.36,12.36,0,0,1,4.3,5.3A24.83,24.83,0,0,1,284.21,219.9Z"/><path d="M264.21,182.6a5.43,5.43,0,0,0,4.2-1.6,6,6,0,0,0,0-8.1,6.63,6.63,0,0,0-8.4,0,6,6,0,0,0,0,8.1A6.14,6.14,0,0,0,264.21,182.6Z"/><path d="M282.11,182.6a5.79,5.79,0,0,0,4.3-1.6,6,6,0,0,0,0-8.1,6.63,6.63,0,0,0-8.4,0,6,6,0,0,0,0,8.1A5.74,5.74,0,0,0,282.11,182.6Z"/><path d="M342.21,190.1a19.41,19.41,0,0,0-8.5-1.8,20.45,20.45,0,0,0-6.9,1.2,14.09,14.09,0,0,0-5.6,3.7,17,17,0,0,0-2.6,3.8l-.4-7.8h-8.5v44.5h9.5V210a16.3,16.3,0,0,1,1.8-8.1,11.45,11.45,0,0,1,4.6-4.4,12.63,12.63,0,0,1,5.7-1.4,9.42,9.42,0,0,1,6.8,2.5c1.8,1.7,2.7,4.7,2.7,9.1v25.9h9.5V204.8a17.41,17.41,0,0,0-2.2-9.2A13.1,13.1,0,0,0,342.21,190.1Z"/><path d="M391.11,208.7,381,206.6a9.34,9.34,0,0,1-4.8-2,4,4,0,0,1-1.3-3.1,4.36,4.36,0,0,1,1.1-2.9,7.24,7.24,0,0,1,3.1-2,16.14,16.14,0,0,1,4.9-.7,15.29,15.29,0,0,1,6.9,1.7,11.18,11.18,0,0,1,5,5.3l6.6-5.5a16.63,16.63,0,0,0-7.2-6.7,25.15,25.15,0,0,0-11.4-2.4,23.93,23.93,0,0,0-9.9,1.9,15.44,15.44,0,0,0-6.3,5,11.65,11.65,0,0,0-2.1,6.8,11.25,11.25,0,0,0,3,8c2,2.1,5.4,3.6,10.1,4.6l9.3,1.9a7.51,7.51,0,0,1,4.2,2,4.48,4.48,0,0,1-.4,6.4,4.7,4.7,0,0,1-.9.6,12.09,12.09,0,0,1-6.4,1.5,17.3,17.3,0,0,1-8.9-2.2A14.86,14.86,0,0,1,370,219l-6.6,5.7a21.24,21.24,0,0,0,8.7,7.3,30,30,0,0,0,12.2,2.6,24.61,24.61,0,0,0,10-1.8,13.71,13.71,0,0,0,6.4-5,12.46,12.46,0,0,0,2.2-7.5,10.48,10.48,0,0,0-2.6-7.2C398.41,211,395.41,209.5,391.11,208.7Z"/><path d="M440.41,225.8a11.62,11.62,0,0,1-4.2.8,6.65,6.65,0,0,1-4.7-1.5c-1.2-1-1.7-2.6-1.7-4.8V196.6h15.3v-7.5h-15.3V176l-9.5,2.7v10.4h-8.5v7.5h8.5v25.3a13.3,13.3,0,0,0,1.9,7.3,9.4,9.4,0,0,0,5,4,18.43,18.43,0,0,0,7,1.2,21.14,21.14,0,0,0,6.6-1,16.46,16.46,0,0,0,5-2.8l-2.1-6.9A11.55,11.55,0,0,1,440.41,225.8Z"/><path d="M487.11,190.9a21.37,21.37,0,0,0-11-2.7,22.55,22.55,0,0,0-11.3,2.8,19.4,19.4,0,0,0-7.8,8,29.09,29.09,0,0,0,0,24.8,19,19,0,0,0,7.9,8,25.22,25.22,0,0,0,11.7,2.8,28.55,28.55,0,0,0,8.2-1.2,19.71,19.71,0,0,0,6.5-3.6,16.81,16.81,0,0,0,4.3-5.6l-7.6-3.6a11.7,11.7,0,0,1-4.4,4.7,13.92,13.92,0,0,1-7.2,1.7,13,13,0,0,1-6.9-1.8A11.36,11.36,0,0,1,465,220a18.47,18.47,0,0,1-1.5-5.7h32.6c.1-.8.2-1.7.3-2.5.1-1,.1-2,.1-3a22.75,22.75,0,0,0-2.4-10.5A19.16,19.16,0,0,0,487.11,190.9Zm-22.3,12a11.4,11.4,0,0,1,4.4-5.3,12.94,12.94,0,0,1,6.7-1.8,10.77,10.77,0,0,1,8.3,3.2,12.14,12.14,0,0,1,3,7.9h-23.4a14.67,14.67,0,0,1,1-4Z"/><path d="M533.81,188.2a15.79,15.79,0,0,0-8.7,2.3,13.75,13.75,0,0,0-5.3,6.6l-.9-8h-8v44.5h9.5V210a15,15,0,0,1,1.7-7.5,11.62,11.62,0,0,1,9.8-5.9c1.1,0,2.2.1,3.2.2a9,9,0,0,1,2.2.6l1.3-8.4a9.35,9.35,0,0,0-2.2-.7A23.48,23.48,0,0,1,533.81,188.2Z"/><path d="M584.21,191a19.24,19.24,0,0,0-9.9-2.8,18.35,18.35,0,0,0-7.3,1.5,16.52,16.52,0,0,0-5.6,4.2,16.94,16.94,0,0,0-2.3,3.6l-.5-8.4h-8.4v63.1h9.5v-26a15.64,15.64,0,0,0,4.6,5.3,15.94,15.94,0,0,0,9.7,3,18.67,18.67,0,0,0,10-2.8,19,19,0,0,0,7.1-8,30.84,30.84,0,0,0,0-24.9A19.2,19.2,0,0,0,584.21,191ZM581,222.7a11.14,11.14,0,0,1-9,4.1,10.77,10.77,0,0,1-6.5-1.9,12.36,12.36,0,0,1-4.3-5.3,19.27,19.27,0,0,1-1.5-8.2,20.93,20.93,0,0,1,1.5-8.2,11.91,11.91,0,0,1,4.4-5.3,10.77,10.77,0,0,1,6.5-1.9,10.54,10.54,0,0,1,8.9,4.1c2.1,2.8,3.2,6.5,3.2,11.3s-1,8.5-3.2,11.3Z"/><path d="M639,213.2a21,21,0,0,1-.9,6.1,10.5,10.5,0,0,1-6.4,6.6,12.6,12.6,0,0,1-4.3.8,10.54,10.54,0,0,1-7.2-2.3c-1.7-1.5-2.6-4.3-2.6-8.3V189.2h-9.5v29.4a17.41,17.41,0,0,0,2.2,9.2,12.69,12.69,0,0,0,5.9,5.1,20.06,20.06,0,0,0,8,1.6,19.34,19.34,0,0,0,9.2-2,14.6,14.6,0,0,0,6.2-6.1l.4,7.2h8.4V189.2h-9.5Z"/><path d="M689.51,225.8a11.62,11.62,0,0,1-4.2.8,6.65,6.65,0,0,1-4.7-1.5c-1.2-1-1.7-2.6-1.7-4.8V196.6h15.3v-7.5h-15.3V176l-9.5,2.7v10.4h-8.5v7.5h8.5v25.3a13.3,13.3,0,0,0,1.9,7.3,9.4,9.4,0,0,0,5,4,18.43,18.43,0,0,0,7,1.2,21.14,21.14,0,0,0,6.6-1,14.59,14.59,0,0,0,5-2.8l-2.1-6.9A11.55,11.55,0,0,1,689.51,225.8Z"/><path d="M738.91,212.9q-2.55-3-9-4.2l-10.1-2.1a9.34,9.34,0,0,1-4.8-2,4,4,0,0,1-1.3-3.1,4.36,4.36,0,0,1,1.1-2.9,7.24,7.24,0,0,1,3.1-2,16.14,16.14,0,0,1,4.9-.7,14.58,14.58,0,0,1,6.8,1.7,11.18,11.18,0,0,1,5,5.3l6.6-5.5a16.63,16.63,0,0,0-7.2-6.7,25.15,25.15,0,0,0-11.4-2.4,23.93,23.93,0,0,0-9.9,1.9,15.44,15.44,0,0,0-6.3,5,11.65,11.65,0,0,0-2.1,6.8,11.25,11.25,0,0,0,3,8c2,2.1,5.4,3.6,10.1,4.6l9.3,1.9a7.51,7.51,0,0,1,4.2,2,4.48,4.48,0,0,1-.4,6.4l-.9.6a13.16,13.16,0,0,1-6.5,1.4,16.7,16.7,0,0,1-8.8-2.2,14.86,14.86,0,0,1-5.6-5.8l-6.6,5.7a21.24,21.24,0,0,0,8.7,7.3,30,30,0,0,0,12.2,2.6,24.61,24.61,0,0,0,10-1.8,14.37,14.37,0,0,0,6.4-5,12.46,12.46,0,0,0,2.2-7.5A10.35,10.35,0,0,0,738.91,212.9Z"/><path class="cls-1" d="M160.51,192.1c-2.2,27.5-34.3,58.2-73.8,58.2h-2.1c-39.1-1.1-66.5-33.1-67.5-62.4a37,37,0,0,1,.7-8.1,5.85,5.85,0,0,0,.2-1.3v-.2c-.3-.8-1.6-2.2-4-4.9-4.3-4.7-10.8-11.7-12.1-17.6-.1-.6-.3-1.1-.4-1.7-2.2-9-5.4-22.5,18-53.3l.1-.1v-.2c.1-4.2.1-7.8.1-11-.2-15-.3-21.3,12.8-35.5,1-1.2-.2-2.7-1.1-3.8l-.5-.6c-1-1.2-4.8-9.8-2.9-17.7,1.8-7.1,10.7-17.2,13.6-20.5l.7-.8.1-.1.1-.6c.6-3.2,2-9.9,4.7-9.9,3.4,0,5.5,2,7.3,3.7,1.1,1,2,1.8,2.9,1.9.2,0,18.3.8,28.8.8a41.75,41.75,0,0,0,7.1-.3,10.26,10.26,0,0,0,4.6-3c1.4-1.2,2.6-2.4,4.1-2.4,2.4,0,3.7,2.1,4.8,3.9a10.54,10.54,0,0,0,.7,1.1l1.6,2.3c8.9,12.9,19.9,29,11.8,42-1.6,2.5-1.2,3.4.2,5.3.8,1,1.6,2,2.5,3,8.3,9.9,19.8,23.5,10.1,52.9l-.1.4.3.2c4.2,3.3,17.8,15.4,14.9,34.5v.2l.2.2c4.1,4.7,13.9,16,11.5,45.4Z"/><path class="cls-2" d="M128.61,91.1c0,17.1-12.6,28.4-15.8,32.3-4.5,2.5-22.2,12.6-29.4,12.6-4.7.2-4.9-3.1-3.3-4.9s20.6-16.7,21-35.4-8.9-24.1-9.9-25.3,0-2.1.6-2.5c1.4-.9,14.8-7,17.3-7.2s3.1-.4,5.4,1.4,14.1,12,14.1,29"/><path class="cls-2" d="M71.21,126.9c-4.5-3.1-9.9-10.9-11.1-16.5S57,90.8,62.61,82.8A39.88,39.88,0,0,1,74.31,71c1.9.2,18.1,5.6,18.1,20.8s-13.6,30.4-21.2,35.1"/><path class="cls-2" d="M74.71,160.5c-2.1-1.2-6.8-4.5-8.2-5.1s-1.9-2.5-1.7-4.1a7.07,7.07,0,0,1,1.2-3.7c.8-1,2.1-2.3,2.5-2.9.9-1.3,2.3-1,3.5-.4s2.3,1.4,2.7,4.3,1.6,9.9,2.1,11.3,0,1.8-2.1.6"/><path class="cls-2" d="M49.61,14.1c4.6,1.3,25.7,1.3,26.5,1.3s22,0,26.5-1.3c3.6,2.8,17.1,16.7,11,29.3s-26.8,18.8-34.9,20.1c-.9,0-1.1-.8-1.1-2.4s-.1-7.2-.1-7.9,1.6-1.6,1.7-2.3-.4-2-3-2-3.1,1.3-3,2,1.7,1.6,1.7,2.3-.1,6.3-.1,7.9-.3,2.4-1.1,2.4c-8.1-1.3-28.8-7.6-34.9-20.1S46,17,49.61,14.1"/><path class="cls-2" d="M33.61,65.4c1.4-2,5.6-4.9,9.7-2.9s12.2,6.6,13.6,7.6c.8.6,1.6,2.7-.2,7.2s-6.4,17.5-6.2,23.9c.4,13,9.9,26.4,13.8,31.3,0,2.5-.2,5-1.9,4.1s-23.3-22.9-27.4-29S28,93,27.81,86.2a34.74,34.74,0,0,1,5.8-20.8"/><path class="cls-2" d="M7.81,145.2c-.6-9.3,4.1-20.2,10.7-29.8,1.6-2.4,4.3-5.6,8.6-2.3s18.3,15.2,20.2,17.5,4.5,7.4,5.8,10.1,2.5,5.4-1,7-13.8,4.5-18.3,9.3a44.34,44.34,0,0,1-13.2,9.7c-2.5-3-12.1-12.2-12.8-21.5"/><path class="cls-2" d="M28.81,194.6c-1.2,0-1.9-1.9-2.1-2.7-1-3.8-.5-10.9.7-12.3.7-.8.8-1.7,4.1-2.1s10.1,1.8,25.1-14.2c1.9-2,3.9-1,3.1,2.7a15.92,15.92,0,0,1-4.3,8.2c-2.3,2.7-8.6,12.6-14.6,16.5s-9.5,4.1-12,3.9"/><path class="cls-2" d="M46.71,225.9c-3.1.4-3.5.2-5.3-1.9s-4.1-4.5-.6-7,15.2-13.2,18.3-17.9,10.3-17.5,11.9-20.6c.8-1.5,2.3-1.2,2.5.8s1,3.7-.4,7-5.3,18.1-18.9,35c-3.2,3.8-4.4,4.2-7.5,4.6"/><path class="cls-2" d="M89.51,222.6c-3.7,9.1-6.6,15-8.6,17.3-.8,1.4-2.2.8-3.1.8s-4.7-.2-5.6-.8-1.9-1.8-.2-4.3,8-13.2,10.5-19.3a79.35,79.35,0,0,0,5.4-22.2c.1-2.1,1.6-2.1,2.5-2.3S92,193,92,195.3s1.2,18.2-2.5,27.3"/><path class="cls-2" d="M124.91,230.4a3.52,3.52,0,0,1-2.3,2.7c-.8.4-9.5,4.7-13.8,4.7.4-1.2,1-12.8,1-20.6s0-13.6-1.2-17.5c-1.1-3.4,3.3-4.3,6-2.1s6.8,10.3,8.2,15,3.1,14.1,2.1,17.8"/><path class="cls-2" d="M111.71,185.1c-16,0-25.1-9.7-25.1-25.7a21.41,21.41,0,0,1,11.1-19.8c4.3-2.5,24.1-13,30-17.5,2.7.6,14,4.5,13,24.1s-13,38.9-29,38.9"/><path class="cls-2" d="M147.51,205.5c-2.5,2.3-2.5,2.3-3.9,2.5-.8-.8-5.1-8.2-7-9.5s-4.7-4.3-7.6-6.6c-1.1-.9.8-1.4,1.9-1.7s7,.2,8.8,1.7,5.1,3.9,6.6,5.1,3.7,6.2,1.2,8.5"/><path class="cls-2" d="M151.21,171.6a58.92,58.92,0,0,1-8.4-.2c-1.9-.1-1.7-1.2-.2-2s4.3-3.3,6.4-3.1,4.1,1.2,4.1,2.9-.2,2.2-1.9,2.4"/><path class="cls-1" d="M92.11,38.6a4.8,4.8,0,0,0,4.8-4.8,4.87,4.87,0,0,0-4.8-4.8,4.8,4.8,0,0,0-4.8,4.8h0a4.8,4.8,0,0,0,4.8,4.8"/><path class="cls-1" d="M58.71,38.6a4.8,4.8,0,0,0,0-9.6,4.87,4.87,0,0,0-4.8,4.8h0a4.74,4.74,0,0,0,4.8,4.8"/><path class="cls-3" d="M92.11,27.1a6.9,6.9,0,1,1-6.9,6.9,6.91,6.91,0,0,1,6.9-6.9h0m11.2,18c6.2-2.7,10-15.8,3.2-21.4s-21.9-3.9-25.3-2.4c-5.9,2.7-5.3,11.9-1,18.5s16.9,8,23.1,5.3"/><path class="cls-3" d="M58.71,27.1a6.9,6.9,0,1,1-6.9,6.9,6.91,6.91,0,0,1,6.9-6.9h0m-11.3,18c6.2,2.7,18.8,1.2,23.1-5.3s4.8-15.8-1.1-18.5c-3.3-1.5-18.5-3.3-25.2,2.4s-3,18.7,3.2,21.4"/></g></g></svg>