<svg xmlns="http://www.w3.org/2000/svg" viewBox="0 0 494.22 148.95"><defs><style>.cls-1{fill:#0083ad;}</style></defs><g id="Layer_2" data-name="Layer 2"><g id="Lager_1" data-name="Lager 1"><path class="cls-1" d="M2,148V121.73H15.08q.22,7.2,3.77,10.62a11.4,11.4,0,0,0,8.1,3.41,8.1,8.1,0,0,0,6-2.47,8,8,0,0,0,2.44-5.79,8.12,8.12,0,0,0-2.38-6q-2.39-2.42-8.71-5.5-13.4-6.44-18.17-11.38T1.33,91.33q0-10.11,6.32-15.67A21.18,21.18,0,0,1,22,70.11q9.21,0,14.25,7.18v-6.4h13V94.34h-13a13.16,13.16,0,0,0-3.74-8.4,10.27,10.27,0,0,0-7.29-3,8.65,8.65,0,0,0-5.44,1.72,5.43,5.43,0,0,0-2.21,4.49,6.85,6.85,0,0,0,1.83,4.52q1.83,2.13,10.71,6a89.57,89.57,0,0,1,13.11,6.89,22.23,22.23,0,0,1,7.23,8A23.52,23.52,0,0,1,53.12,126q0,11.43-6.66,17.2A23.22,23.22,0,0,1,30.72,149q-10.16,0-15.64-7.51V148Z"/><path class="cls-1" d="M86.94,148.51l-22-64.59H56.78v-13H91.54v13h-8l12.53,37,11.75-37h-7v-13h27.73v13h-7.16l12.65,37,12.14-37H138.5v-13h30.88v13H161l-21.29,64.59H125.31L113.16,113.3l-11.47,35.21Z"/><path class="cls-1" d="M173.1,148V135h9.26V83.92H173.1v-13h68V95.34H226.33V83.92h-23.9v17.79h19.29v13H202.43V135h23.9V123.45h14.74V148Z"/><path class="cls-1" d="M247.73,148V135h11.7V83.92h-11.7v-13h36.54a98.14,98.14,0,0,1,18.57,1.41,33.09,33.09,0,0,1,13.47,6.26,34.53,34.53,0,0,1,10.32,13,41.6,41.6,0,0,1,3.88,18.07A43.57,43.57,0,0,1,327.79,125a36.41,36.41,0,0,1-6.74,11.76,29.85,29.85,0,0,1-9.62,7.09,39.33,39.33,0,0,1-10.28,3.41,97.07,97.07,0,0,1-14.5.78Zm31.71-13h4.83q8.76,0,13.88-2.27a17.45,17.45,0,0,0,8.24-8q3.11-5.74,3.1-15a32.67,32.67,0,0,0-3.13-15,17.28,17.28,0,0,0-8.48-8.48q-5.36-2.34-13.61-2.33h-4.83Z"/><path class="cls-1" d="M331.88,148V135h9.26V83.92h-9.26v-13h68V95.34H385.1V83.92H361.21v17.79H380.5v13H361.21V135H385.1V123.45h14.75V148Z"/><path class="cls-1" d="M408.89,148V135h10.32V83.92H408.89v-13h32.4L469.66,119V83.92h-10v-13h34.59v13H483.41v64.64H466.22L433,91.4V135h9.7v13Z"/><path class="cls-1" d="M6.69,47.86V12.78H0V6.93H16L36.49,43.29V12.78H29.86V6.93H49.07v5.85h-6.9v41.4H34.92L12.48,14.25V47.86h6.69v5.85H0V47.86Z"/><path class="cls-1" d="M57.14,47.86V12.78H51.08V6.93H90V21H84.18V12.78h-20V26.7H81.59v5.85H64.2V47.86h20V39.35H90V53.71H51.08V47.86Z"/><path class="cls-1" d="M99.55,47.86V12.78H93.12V6.93h19a38.77,38.77,0,0,1,9.45.92,10.57,10.57,0,0,1,5.79,3.9,11.86,11.86,0,0,1,2.28,7.42q0,9.28-9.64,11.67l8.27,17H134v5.85H123.85L113.2,31.85h-6.59v16h6v5.85H93.12V47.86ZM106.61,26h5.51a24.76,24.76,0,0,0,5.91-.52,5.78,5.78,0,0,0,3.11-2.12,7,7,0,0,0,1.21-4.29,6.12,6.12,0,0,0-1.23-3.87,5.31,5.31,0,0,0-3-2,26.28,26.28,0,0,0-5.5-.42h-6Z"/><path class="cls-1" d="M143.08,47.86V12.78h-6.36V6.93h18.1a66.17,66.17,0,0,1,11.55.77,19.81,19.81,0,0,1,7.85,3.5,19.12,19.12,0,0,1,6.07,7.48,24.84,24.84,0,0,1,2.27,10.85,30.6,30.6,0,0,1-2.18,12,17.46,17.46,0,0,1-5.74,7.63,22,22,0,0,1-8.44,3.52,64.57,64.57,0,0,1-12.46,1h-17V47.86Zm7.06,0h3.7a48.52,48.52,0,0,0,9.8-.78,15.27,15.27,0,0,0,6.11-2.64,12.94,12.94,0,0,0,4-5.63,23.3,23.3,0,0,0,1.55-8.88,19.74,19.74,0,0,0-2.54-10.32,11.92,11.92,0,0,0-6.49-5.54q-3.95-1.29-12.16-1.29h-4Z"/><path class="cls-1" d="M184.45,53.71v-17h5.85v4.14q4.2,7.64,11,7.64a8.52,8.52,0,0,0,5.85-2.12,7.1,7.1,0,0,0,2.39-5.55c0-2.22-.66-3.82-2-4.79s-3.75-1.95-7.36-2.91A53.77,53.77,0,0,1,190.9,30a12,12,0,0,1-4.82-4.27,11.82,11.82,0,0,1-1.8-6.58,12,12,0,0,1,3.92-9.4A14.18,14.18,0,0,1,198,6.19a17,17,0,0,1,10.43,3.63V6.69h5.72V20.88h-5.72V17.62a11.3,11.3,0,0,0-9.92-5.41A8.81,8.81,0,0,0,192.65,14a5.43,5.43,0,0,0-2.05,4.22,5.53,5.53,0,0,0,1,3.32,6.21,6.21,0,0,0,2.66,2.1,56.67,56.67,0,0,0,6.36,1.88,49.8,49.8,0,0,1,9,3,12.27,12.27,0,0,1,4.81,4.66,14,14,0,0,1,2,7.51,12.84,12.84,0,0,1-4.22,9.88,14.76,14.76,0,0,1-10.44,3.91,16.75,16.75,0,0,1-11.5-4.61v3.87Z"/><path class="cls-1" d="M241.26,30.1a23.51,23.51,0,0,1,6.66-17q6.66-6.87,17.36-6.86t17.59,6.86a23.45,23.45,0,0,1,6.79,17.18q0,10.53-6.91,17.37t-17.57,6.85a24.77,24.77,0,0,1-12.5-3.25,20.81,20.81,0,0,1-8.56-9A27.06,27.06,0,0,1,241.26,30.1Zm7.71,0a19.08,19.08,0,0,0,4.5,12.92,14.91,14.91,0,0,0,11.84,5.21,15.19,15.19,0,0,0,11.94-5.33,18.64,18.64,0,0,0,4.67-12.73,17.91,17.91,0,0,0-4.76-12.63,15.56,15.56,0,0,0-12-5.16,14.94,14.94,0,0,0-11.7,5.08A18.24,18.24,0,0,0,249,30.13Z"/><path class="cls-1" d="M297.22,47.86V12.78H291.3V6.93h36.29V21H321.8V12.78H304.28V26.63h15.1v5.86h-15.1V47.86h6v5.85h-19V47.86Z"/><path class="cls-1" d="M491.21,4.67c.08-2.22-1-3.12-3.21-3.17A48.21,48.21,0,0,1,479.76,1c-8.17-1-33.5-1.18-36.67-.76s-20.21,1-20.21,1h-1s-17.05-.58-20.22-1-28.5,0-36.67,1a43,43,0,0,1-8.24.4c-2.17.06-3.28.9-3.2,3.11s-.68,10.79,1.57,11.93,3.27,1.45,3.39,2.32,3.32,25.47,10,31.22c5.81,5,10.79,4.95,22.95,4.56s20.19-4.13,23.4-18.26,2.37-19.3,7.07-19.3h1c4.7,0,3.86,5.17,7.07,19.3s11.23,18,23.39,18.37,17.15.42,23-4.62c6.63-5.75,9.82-30.4,9.94-31.26s1.14-1.2,3.39-2.34S491.13,6.88,491.21,4.67Zm-82,24.69c-.68,3.43-3.3,18.23-16.54,19.15-15.2,1.06-21.09-.23-25.28-19.65,0,0-3-13.24-.38-16.27s4-3.39,13.53-3.75,23.19-1.47,27.69,1.91S409.91,25.92,409.22,29.36Zm68.15-.5c-4.19,19.42-10.08,20.71-25.29,19.65-13.23-.92-15.86-15.72-16.54-19.15s-3.51-15.23,1-18.61,18.12-2.28,27.69-1.91,10.86.73,13.52,3.75S477.37,28.86,477.37,28.86Z"/></g></g></svg>