<?xml version="1.0" encoding="utf-8"?>
<!-- Generator: Adobe Illustrator 26.0.3, SVG Export Plug-In . SVG Version: 6.00 Build 0)  -->
<svg version="1.1" id="Layer_1" xmlns="http://www.w3.org/2000/svg" xmlns:xlink="http://www.w3.org/1999/xlink" x="0px" y="0px"
	 viewBox="0 0 500 500" style="enable-background:new 0 0 500 500;" xml:space="preserve">
<style type="text/css">
	.st0{clip-path:url(#SVGID_00000023990323746727911500000015428280927080933006_);fill:#93D500;}
	.st1{fill:#93D500;}
</style>
<g>
	<defs>
		<rect id="SVGID_1_" x="125.2" y="125.6" width="249.4" height="249.4"/>
	</defs>
	<clipPath id="SVGID_00000055699562574326569260000013468729535881586065_">
		<use xlink:href="#SVGID_1_"  style="overflow:visible;"/>
	</clipPath>
	<path style="clip-path:url(#SVGID_00000055699562574326569260000013468729535881586065_);fill:#93D500;" d="M249.9,375
		c-68.8,0-124.7-55.9-124.7-124.7s55.9-124.7,124.7-124.7c68.8,0,124.7,55.9,124.7,124.7S318.7,375,249.9,375z M249.9,143.5
		c-58.9,0-106.8,47.9-106.8,106.8S191,357.1,249.9,357.1c58.9,0,106.8-47.9,106.8-106.8S308.8,143.5,249.9,143.5z"/>
</g>
<path class="st1" d="M259.7,312.8h-14c-2.9,0-5.6-1.5-7.1-3.9L175,208.1c-2.5-3.9-1.3-9.1,2.6-11.6c3.9-2.5,9.1-1.3,11.6,2.6
	l61.1,96.9h4.7l59.8-95.1c2.5-3.9,7.7-5.1,11.6-2.6c3.9,2.5,5.1,7.7,2.6,11.6l-62.3,99C265.3,311.3,262.6,312.8,259.7,312.8z"/>
</svg>
